<svg xmlns="http://www.w3.org/2000/svg" viewBox="0 9.84000015258789 129.47000122070312 35.400001525878906" data-asc="0.89111328125" width="129.47000122070312" height="35.400001525878906"><defs/><g fill="#ffffff"><g transform="translate(0, 0)"><path d="M15.70 42.04Q14.06 43.75 12.50 44.49Q10.94 45.24 9.13 45.24Q5.47 45.24 2.73 42.18Q0 39.11 0 34.30Q0 29.49 3.03 25.50Q6.05 21.51 10.82 21.51Q13.77 21.51 15.70 23.39L15.70 19.26Q15.70 15.43 15.52 14.55Q15.33 13.67 14.94 13.35Q14.55 13.04 13.96 13.04Q13.33 13.04 12.28 13.43L11.96 12.57L18.63 9.84L19.73 9.84L19.73 35.69Q19.73 39.62 19.91 40.49Q20.09 41.36 20.50 41.70Q20.90 42.04 21.44 42.04Q22.09 42.04 23.19 41.63L23.46 42.48L16.82 45.24L15.70 45.24L15.70 42.04M15.70 40.33L15.70 28.81Q15.55 27.15 14.82 25.78Q14.09 24.41 12.88 23.72Q11.67 23.02 10.52 23.02Q8.37 23.02 6.69 24.95Q4.47 27.49 4.47 32.37Q4.47 37.30 6.62 39.93Q8.76 42.55 11.40 42.55Q13.62 42.55 15.70 40.33ZM37.57 41.33Q34.13 43.99 33.25 44.41Q31.93 45.02 30.44 45.02Q28.13 45.02 26.62 43.43Q25.12 41.85 25.12 39.26Q25.12 37.62 25.85 36.43Q26.86 34.77 29.33 33.30Q31.81 31.84 37.57 29.74L37.57 28.86Q37.57 25.51 36.51 24.27Q35.45 23.02 33.42 23.02Q31.88 23.02 30.98 23.85Q30.05 24.68 30.05 25.76L30.10 27.17Q30.10 28.30 29.53 28.91Q28.96 29.52 28.03 29.52Q27.12 29.52 26.55 28.88Q25.98 28.25 25.98 27.15Q25.98 25.05 28.13 23.29Q30.27 21.53 34.16 21.53Q37.13 21.53 39.04 22.53Q40.48 23.29 41.16 24.90Q41.60 25.95 41.60 29.20L41.60 36.79Q41.60 39.99 41.72 40.71Q41.85 41.43 42.13 41.67Q42.41 41.92 42.77 41.92Q43.16 41.92 43.46 41.75Q43.97 41.43 45.43 39.97L45.43 41.33Q42.70 45.00 40.21 45.00Q39.01 45.00 38.31 44.17Q37.60 43.33 37.57 41.33M37.57 39.75L37.57 31.23Q33.89 32.69 32.81 33.30Q30.88 34.38 30.05 35.55Q29.22 36.72 29.22 38.11Q29.22 39.87 30.27 41.03Q31.32 42.19 32.69 42.19Q34.55 42.19 37.57 39.75ZM53.74 26.29Q56.18 23.85 56.62 23.49Q57.71 22.56 58.98 22.05Q60.25 21.53 61.50 21.53Q63.60 21.53 65.11 22.75Q66.63 23.97 67.14 26.29Q69.65 23.36 71.39 22.45Q73.12 21.53 74.95 21.53Q76.73 21.53 78.11 22.45Q79.49 23.36 80.30 25.44Q80.83 26.86 80.83 29.88L80.83 39.50Q80.83 41.60 81.15 42.38Q81.40 42.92 82.06 43.30Q82.71 43.68 84.20 43.68L84.20 44.56L73.17 44.56L73.17 43.68L73.63 43.68Q75.07 43.68 75.88 43.12Q76.44 42.72 76.68 41.87Q76.78 41.46 76.78 39.50L76.78 29.88Q76.78 27.15 76.12 26.03Q75.17 24.46 73.07 24.46Q71.78 24.46 70.47 25.11Q69.17 25.76 67.31 27.51L67.26 27.78L67.31 28.83L67.31 39.50Q67.31 41.80 67.57 42.36Q67.82 42.92 68.53 43.30Q69.24 43.68 70.95 43.68L70.95 44.56L59.64 44.56L59.64 43.68Q61.50 43.68 62.19 43.24Q62.89 42.80 63.16 41.92Q63.28 41.50 63.28 39.50L63.28 29.88Q63.28 27.15 62.48 25.95Q61.40 24.39 59.47 24.39Q58.15 24.39 56.86 25.10Q54.83 26.17 53.74 27.51L53.74 39.50Q53.74 41.70 54.04 42.36Q54.35 43.02 54.94 43.35Q55.54 43.68 57.37 43.68L57.37 44.56L46.31 44.56L46.31 43.68Q47.85 43.68 48.46 43.35Q49.07 43.02 49.39 42.30Q49.71 41.58 49.71 39.50L49.71 30.96Q49.71 27.27 49.49 26.20Q49.32 25.39 48.95 25.09Q48.58 24.78 47.95 24.78Q47.27 24.78 46.31 25.15L45.95 24.27L52.69 21.53L53.74 21.53L53.74 26.29ZM98.66 41.33Q95.21 43.99 94.34 44.41Q93.02 45.02 91.53 45.02Q89.21 45.02 87.71 43.43Q86.21 41.85 86.21 39.26Q86.21 37.62 86.94 36.43Q87.94 34.77 90.42 33.30Q92.90 31.84 98.66 29.74L98.66 28.86Q98.66 25.51 97.60 24.27Q96.53 23.02 94.51 23.02Q92.97 23.02 92.07 23.85Q91.14 24.68 91.14 25.76L91.19 27.17Q91.19 28.30 90.61 28.91Q90.04 29.52 89.11 29.52Q88.21 29.52 87.63 28.88Q87.06 28.25 87.06 27.15Q87.06 25.05 89.21 23.29Q91.36 21.53 95.24 21.53Q98.22 21.53 100.12 22.53Q101.56 23.29 102.25 24.90Q102.69 25.95 102.69 29.20L102.69 36.79Q102.69 39.99 102.81 40.71Q102.93 41.43 103.21 41.67Q103.49 41.92 103.86 41.92Q104.25 41.92 104.54 41.75Q105.05 41.43 106.52 39.97L106.52 41.33Q103.78 45.00 101.29 45.00Q100.10 45.00 99.39 44.17Q98.68 43.33 98.66 41.33M98.66 39.75L98.66 31.23Q94.97 32.69 93.90 33.30Q91.97 34.38 91.14 35.55Q90.31 36.72 90.31 38.11Q90.31 39.87 91.36 41.03Q92.41 42.19 93.77 42.19Q95.63 42.19 98.66 39.75ZM114.72 21.53L114.72 26.56Q117.53 21.53 120.48 21.53Q121.83 21.53 122.71 22.35Q123.58 23.17 123.58 24.24Q123.58 25.20 122.95 25.85Q122.31 26.51 121.44 26.51Q120.58 26.51 119.52 25.67Q118.46 24.83 117.94 24.83Q117.50 24.83 116.99 25.32Q115.89 26.32 114.72 28.61L114.72 39.33Q114.72 41.19 115.19 42.14Q115.50 42.80 116.31 43.24Q117.11 43.68 118.63 43.68L118.63 44.56L107.18 44.56L107.18 43.68Q108.89 43.68 109.72 43.14Q110.33 42.75 110.57 41.89Q110.69 41.48 110.69 39.53L110.69 30.86Q110.69 26.95 110.53 26.21Q110.38 25.46 109.95 25.12Q109.52 24.78 108.89 24.78Q108.13 24.78 107.18 25.15L106.93 24.27L113.70 21.53L114.72 21.53ZM126.76 39.82Q127.91 39.82 128.69 40.61Q129.47 41.41 129.47 42.53Q129.47 43.65 128.67 44.45Q127.88 45.24 126.76 45.24Q125.63 45.24 124.84 44.45Q124.05 43.65 124.05 42.53Q124.05 41.38 124.84 40.60Q125.63 39.82 126.76 39.82Z"/></g></g></svg>